<?xml version="1.0" encoding="utf-8"?>

<!DOCTYPE svg PUBLIC "-//W3C//DTD SVG 1.1//EN" "http://www.w3.org/Graphics/SVG/1.1/DTD/svg11.dtd">
<svg version="1.1" id="Layer_1" xmlns="http://www.w3.org/2000/svg" xmlns:xlink="http://www.w3.org/1999/xlink" x="0px" y="0px"
	 viewBox="0 0 1280 1173" enable-background="new 0 0 1280 1173" xml:space="preserve">
<g>
	<path fill="#071460" d="M662.59,76.66c5.3799-4.26,11.85-7.01,18.53-8.42c8.07-0.65,16.23-0.96,24.27,0.15
		c-5.45,0.68-10.94,0.58-16.41,0.5c-7.22-0.11-14.32,2.03-20.6,5.49c-5.99,3.21-10.25,8.7-15.87,12.42
		C654.83,82.53,658.87,79.62,662.59,76.66z"/>
	<path fill="#0E009B" d="M705.39,68.39c4.95,0.24,10.33,1.64,13.7,5.53c4.0699,4.35,6.91,9.72,8.64,15.4
		c2.69,7.63,1.41,15.81,1.7,23.71c0.71-0.31,2.14-0.95,2.85-1.27c1.64,2.05,3.37,4.07,4.6,6.42c-0.14,5.6-0.47,11.45-2.98,16.56
		c-2.11,4.3-4.1,8.72-7.12,12.47c3.39,4.9,7.55,9.22,10.8199,14.22c1.52,2.98,5.2401,2,7.84,3.09c2.07,1.25,3.37,3.38,5.03,5.09
		c4.4,1.73,9.28,2.15,13.47,4.47c4.33,2.11,7.3,6.11,11.47,8.47c5.66,3.48,12.13,5.24,18.1801,7.87
		c9.91,5.18,20.46,9.6,29.0099,16.95c6.39,8.22,13.96,15.39,20.88,23.14c10.09,10.99,20.03,22.18,28.45,34.52
		c5.51,7.92,10.82,16.25,13.33,25.66c2.38,8.96,7.2,17.13,8.9,26.28c0.4301,2.14-0.3199,4.25-0.86,6.29
		c-4.4,15.61-13.91,29.36-25.47,40.55c-7.57,7.49-16.54,13.39-26.04,18.12c-5.78,3.7-11.82,7.02-18.13,9.73
		c-0.33,4.78-0.5099,9.57-0.74,14.36c0.13,1.34-1.16,2.1-1.96,2.93c-3.29,2.72-5.93,6.1-9.23,8.79c-1.75,1.21-1.84,3.45-2.29,5.33
		c-0.7,3.66-1.73,7.23-2.8,10.79c-1.69,5.5-3.45,11.12-6.98,15.75c-2.66,3.42-4.66,7.27-7.1,10.83c-3.22,1.83-5.81,4.7-5.5,8.66
		c-0.13,0.5-0.39,1.49-0.52,1.99c-1.81,1.82-3.56,3.7-5.16,5.71c-4.09-1.05-7.95-2.79-12.05-3.72c-0.85,2.05-2.36,4.12-1.89,6.46
		c2.42,2.5,5.46,4.29,8.08,6.58c-1.95,3.92-5.57,6.86-6.69,11.21c2.22,1.11,4.9,1.39,6.8,3.07c1.52,2.41-0.05,5.43,0.76,8.07
		c2.03,9.12,4.69,18.15,5.67,27.48c0.48,10.31,0.7,20.65,2.12,30.89c0.34,2.64,1.24,5.17,2.5,7.5099c1.58,2.83,1.21,6.17,1.16,9.28
		c-1.2401,0.58-2.46,1.17-3.6801,1.77c0.58,2.2,1.1801,4.4,1.84,6.6c6.75-3.06,13.35-6.69,20.67-8.24
		c5.9-0.98,10.14-5.88,13.01-10.74c-0.49-2.01-1.43-3.92-1.63-5.99c-0.18-2.13,1.65-3.59,2.69-5.23c1.59-1.97,1.4-4.68,2.06-7.01
		c1.11-5.52,4.04-11.25,9.37-13.7c4.66-1.14,9.33,0.67,13.76,1.97c3.85,1.32,8.36,2.95,9.99,7.07c2.08,4.96,4.38,9.9,5.28,15.25
		c4.33-0.63,8.35-2.52,12.64-3.42c0.05,1.61,0.91,3.3,0.3199,4.89c-2.92,1.9-5.99,3.54-8.94,5.37c3.94,6.25,8.39,12.19,11.82,18.76
		c3.17,4.83,6.83,9.39,9.14,14.75c1.66,3.99,4.86,7.64,4.5,12.21c0.37,9.17,1.3,18.71-2.28,27.44c-1.6,3.95-5.05,7.33-9.4,7.93
		c-6.84,1.3-13.03-3.15-17.67-7.66c-4.94-5.8-9.14-12.19-13.79-18.21c-3.5099-2.4-7.83-3.35-11.6-5.28c0.58-1.47,1.17-2.94,1.7-4.43
		c-7.9,8.06-16.31,15.65-24.12,23.73c-3.06,5.99-7.56,11.1-13,15.04c-6.2,4.18-9.1,11.56-14.94,16.12
		c-5.67,4.38-13.38,5.17-20.26,4.03c-2.34-0.41-3.37-2.72-4.86-4.2401c-5.25-1.55-12.18-1.1-15.28-6.54
		c-12.92-24.93-24.38-50.64-34.15-76.97c-1.96-5.79-3.84-11.69-4.21-17.83c-10.78-4.69-21.77-10.35-33.84-10.14
		c-5.44,0.05-10.89-0.51-16.14-1.96c-0.96-6.25-1.91-12.49-2.82-18.74c1.55-0.92,3.07-1.88,4.65-2.76
		c0.23-6.9,0.02-13.8,0.12-20.6899c-1.58-0.05-3.14-0.08-4.7-0.1c-2.76,9.14-3.81,19.53-10.73,26.74
		c-6.24,6.64-9.7,15.21-13.78,23.22c-2.75,0.46-5.68,1.76-8.42,0.72c-3.04-2.08-4.97-6.52-8.8199-6.98
		c-12.78,9.73-24.89,20.41-35.4301,32.55c-5.0099,5.94-9.37,12.5-12.19,19.78c-2.67,6.14-4.92,12.62-8.91,18.07
		c-2.54,2.45-5.53,4.45-7.59,7.39c2.29,5.86-1.59,11.71-3.84,16.97c-0.03,1.51,1.49,2.6,2.14,3.91c-1.17,4.3-2.64,8.54-5.32,12.17
		c-0.61,4.04,0.12,8.19-0.66,12.23c-1.81,9.9-4.89,19.89-11.19,27.91c-4.85,6.06-9.69,12.33-12.45,19.67
		c-1.7,4.4-1.59,9.18-2.27,13.79c-1.74,8.86-3.96,18.09-10.14,25.02c0.73,2.8799,0.94,5.94,0.17,8.84
		c-3.08,11.91-6.18,23.82-9.15,35.76c-1.55,4.1,2.81,7.43,1.99,11.53c-0.7,5.46-3.48,11.05-0.94,16.46
		c1.58,2.79-0.88,5.54-3.24,6.84c-10.27,4.75-21.98,3.84-32.71,1.31c-10.62-1.42-20.91-4.51-31.4-6.63
		c-6.59-1.07-12.19-4.88-17.67-8.43c-3.12-2.16-6.43-4.2-8.92-7.11c-1.51-4.09-4.04-8.98-1.35-13.1299c3.1-4.26,8.5-6.42,13.68-6.41
		c8.61-0.04,17.23,0.21,25.84-0.26c2.06-0.1,4.01-0.8,5.93-1.52c0.04-0.6,0.11-1.81,0.15-2.41c-3.12-2.09-6.99-2.65-10.02-4.85
		c-1.26-2.87,0.91-6.27,3.58-7.45c6.23-2.7,13.11-0.89,19.64-1.36c1.97-0.02,4.12-1.09,4.78-3.05c1.58-4.61,2.92-9.29,4.35-13.9399
		c-2.86-1.55-7.22-2.17-7.74-6.07c-0.81-4.64,0.76-9.26,1.8-13.7401c4.38-16.45,8.96-32.89,12.12-49.6299
		c1.61-15.23,3.9-30.38,5.86-45.57c0.14-2.26,1.81-3.92,3.05-5.66c2.23-2.84,4.27-5.83,6.39-8.75c1.62-2.56,4.84-3.11,7.1-4.91
		c2.34-4.33,3.48-9.19,5.16-13.79c2.66-8.28,6.01-16.36,8.05-24.83c1.44-5.28-0.25-11.3,2.94-16.07c2.38-3.66,3.5-7.9,5.16-11.89
		c4.8-11.9,9.6299-23.79,14.39-35.71c0.63-1.5099,1.17-3.08,2.12-4.43c3.25-3.6,4.86-8.22,5.54-12.95
		c1.15-8.62,8.84-14.01,12.46-21.47c1.36-3.45-1.69-8.39,2.12-10.75c2.45-2.39,7.53-3.63,6.77-7.89c-0.01-0.49-0.02-1.47-0.03-1.95
		l0.0099-0.79c1.39-1.87,3.02-3.62,3.8701-5.81c1.18-4.25,0.11-8.74,0.99-13.02c1.6-2.42,4-4.38,4.67-7.33
		c1.13-4.66,4.27-8.77,4.1-13.71c-2.74-0.24-5.47-0.52-8.2-0.61c2.7599-0.5,5.56-0.72,8.36-0.92c-0.01-3.69-1.06-7.59,0.49-11.1
		c2.21-5.27,3.94-10.88,7.41-15.51c2.6-3.55,6.72-5.37,10.14-7.96c-2.78-3.31-5.67-6.54-8.13-10.1c5.51-8.28,9.48-17.4,13.34-26.53
		c1.33-3.54,0.57-7.48,2.03-11c2.63-7.35,5.71-14.58,9.72-21.3c2.57-5.35,2.24-11.5,1.37-17.22c-5.76,1.74-11.44,3.69-17.26,5.21
		c-2.52,0.63-5.01,1.51-7.15,3.02c-5.47,3.89-12.09,5.51-18.3799,7.54c-6.08,1.72-12.22,3.82-18.58,3.9
		c-3.62-1.11-7.27-2.43-10.4-4.6c-2.53-1.78-3.62-4.78-5.05-7.38c-1.3,1.34-3.07,2.53-3.45,4.48c-1,5.58-1.34,11.35-3.44,16.69
		c-1.21,3.25-3.47,5.94-4.99,9.02c-2.28,4.6-4.49,9.23-6.46,13.96c2.1,1.78,4.1201,3.71,6.59,4.99c3.97,1.65,6.65,5.94,6.66,10.18
		c-1.74,0.71-3.62,1.74-5.52,0.91c-5.01-1.69-10.78-1.7-15.02-5.18c-2.82-2.22-5.94-4.02-8.7-6.29c-2.41-6.5-4.24-13.23-6.08-19.91
		c-1.11-4.83-2.62-10.1-0.47-14.88c2.97-7.19,7.37-13.67,11.66-20.13c2.27-3.41,4.37-7.02,7.52-9.72c-0.72-1.24-1.79-2.34-2.07-3.77
		c1.13-2.61,1.68-6.12,4.66-7.28c6.35-3.13,12.95-5.73,19.47-8.5c6.09-2.43,12.1-5.31,18.62-6.39c4.83-0.89,9.47-2.56,14.3-3.48
		c1.6299-0.29,3.2-0.9,4.6299-1.76c10.3101-6.07,19.96-13.2,29.13-20.88c7.04-5.2,12.48-13.44,11.9901-22.43
		c-2.9301-3.78-8.95-6.81-7.78-12.33c0.5-2.87,2.26-5.29,3.03-8.07c-0.19-6.15-1.1801-12.64,1.48-18.44
		c1.27-2.66,1.45-5.58,1.35-8.47c3.45-3.62,7.5-6.74,11.64-9.57c9.22-5.33,19.85-7.74,30.28-9.32c2.71-1.35,5.11-3.29,7.3-5.37
		c0.06-3.9-1.74-7.65-2.48-11.47c-1.94-0.73-3.99-1.24-5.7599-2.31c-2.7401-2.62-4.45-6.16-5.42-9.78
		c-1.48-6.24-2.28-12.65-1.96-19.06c1.22,0.26,2.46,0.51,3.7,0.76c-1.2599-10.56-3.2599-22.5,2.29-32.15
		c5.62-3.72,9.88-9.21,15.87-12.42c6.28-3.46,13.38-5.6,20.6-5.49C694.45,68.97,699.94,69.07,705.39,68.39 M814.27,311.26
		c-0.02,6.41,0.05,12.97-1.81,19.18c-0.61,2.41-3.08,3.42-4.84,4.83c6.52-0.44,13,0.17,19.44,1.2c1.53-3.88,3.21-8.42,1-12.4
		c-2.05-3.3-3.66-6.97-6.36-9.8C819.33,313.02,816.74,312.26,814.27,311.26z"/>
	<path fill="#01149B" d="M806.64,433.86c3.82,0.2,7.65,0.49,11.45,0.98c-2.16,0.07-4.3,0.26-6.4301,0.48
		c4.71,0.95,9.52,1.23,14.31,1.51c53.3101,5.1,106.3101,13.54,158.45,25.79c4.18,1.2,8.49,1.98,12.86,1.89
		c9.5,1.75,18.7599,4.74,28.12,7.16c2.6699,0.81,5.5,1.3,7.98,2.66c4.25,3.25,9.59,4.22,14.58,5.79
		c9.9301,2.79,19.4701,6.78,29.36,9.74c17.4301,6.82,35.2001,13.1,51.64,22.15c-17.39-4.94-34.59-10.57-52.12-15
		C999.48,476.39,919.65,465.92,839.77,462.22c-9.31-1.11-18.68-0.05-27.99-0.93c-6.4-0.6-12.82-0.51-19.22-0.85
		c2.44-3.56,4.44-7.41,7.1-10.83C803.19,444.98,804.95,439.36,806.64,433.86z"/>
	<path fill="#071460" d="M811.66,435.32c2.13-0.22,4.27-0.41,6.4301-0.48c37.05,3.1,73.92,8.19,110.5099,14.76
		c23.01,4.38,46.07,8.78,68.6801,14.91c-4.3701,0.09-8.6801-0.69-12.86-1.89c-52.14-12.25-105.14-20.69-158.45-25.79
		C821.18,436.55,816.37,436.27,811.66,435.32z"/>
	<path fill="#00149B" d="M405.51,466.28C458.64,451.72,513.08,442,567.9,436.7c2.73,0.09,5.46,0.37,8.2,0.61
		c0.17,4.94-2.97,9.05-4.1,13.71c-0.67,2.95-3.07,4.91-4.67,7.33c-0.88,4.28,0.19,8.77-0.99,13.02c-0.85,2.19-2.48,3.94-3.8701,5.81
		c-43.15,7.14-85.78,17.35-127.39,30.84c-42.59,14.3-84.56,31.39-122.82,55.19c-1.74,1.09-2.87,2.84-4.09,4.44
		c-1.8,1.33-3.64,2.59-5.54,3.78c-6.05,1.05-10.22,5.8-15.05,9.14c-2.62,1.77-4.76,4.14-6.22,6.97c-0.23,0.2-0.7,0.6-0.94,0.8
		c-1.65,0.65-3.43,1.1-4.82,2.25c-11.88,10.95-22.48,23.37-30.65,37.35c-9.75,17.27-15.14,37.24-14.04,57.13
		c0.74,9.83,2.7,19.59,6,28.89c0.85,2.68,2.59,4.92,4.38,7.04c4.01,6.83,7.32,14.16,12.65,20.12c0.2,0.27,0.6,0.82,0.81,1.09
		c2.26,3.72,5.06,7.06,8.1,10.18c4.74,5.72,9.93,11.14,15.82,15.68c1.5,1.5,2.93,3.07,4.36,4.66c3.53,5.9,10.09,8.72,14.82,13.47
		c-13.34-4.91-25.55-12.36-38.06-19.03c-1.61-0.8-3.35-1.29-5.07-1.8c-2.14-0.71-3.99-2.07-5.9-3.23
		c-17.53-10.94-34.28-23.38-48.63-38.32c-11.66-12.27-21.73-26.34-27.79-42.23c-6.67-17.23-8.16-36.39-4.26-54.45
		c3.71-18,12.73-34.54,24.28-48.69c21.65-26.14,50.49-45.12,80.19-60.93C314.77,495.42,359.77,479.19,405.51,466.28z"/>
	<path fill="#0F137A" d="M787.06,469.1c-0.31-3.96,2.28-6.83,5.5-8.66c6.4,0.34,12.82,0.25,19.22,0.85
		c9.31,0.88,18.68-0.18,27.99,0.93c79.88,3.7,159.71,14.17,237.0699,34.79c17.53,4.43,34.73,10.06,52.12,15
		c-16.4399-9.05-34.21-15.33-51.64-22.15c-9.8899-2.96-19.4299-6.95-29.36-9.74c-4.99-1.57-10.33-2.54-14.58-5.79
		c8.76,1.79,17.17,5.02,25.7,7.67c24.3301,8.01,48.25,17.38,71.3101,28.58c7.23,3.71,14.7,7.05,21.58,11.41
		c-44.39-15.81-89.9399-28.41-136.2-37.45c-73.01-14.46-147.44-20.98-221.81-22.07c-4.12-0.56-4.26,4.97-6.23,7.41L787.06,469.1z"/>
	<path fill="#A9CA33" d="M791.45,464.49c1.12-0.41,2.29-0.59,3.51-0.52c63.5,1.31,126.94,7.22,189.46,18.5
		c44.58,7.98,88.84,18.23,131.93,32.25c27.7101,9.09,54.9601,19.73,80.98,32.9301c2.6001,1.27,5.3301,2.49,7.25,4.77
		c-7.9099-1.42-15.25-4.88-22.96-7.04C1086.8,514.89,987.32,500.86,888,496.99c-18.32-0.94-36.68-0.45-55-1.17
		c-18.33,0.57-36.68,0.44-55.02,1.02c-2.15,0.11-4.31,0.02-6.39-0.47c1-1.89,2.0099-3.77,3.1299-5.58
		c0.9-1.15,1.84-2.26,2.8101-3.36c0.15,0.37,0.47,1.11,0.6299,1.48c-0.43-1.64-0.66-3.35-1.42-4.86c-2.2-2.34-5.05-3.94-7.53-5.94
		c0.45-0.56,1.35-1.68,1.8-2.24c3.72,1.29,7.41,2.74,11.27,3.62l0.5099-0.61C786.71,474.78,788.17,469.05,791.45,464.49z"/>
	<path fill="#161854" d="M781.38,476.8c1.6-2.01,3.35-3.89,5.16-5.71c-0.81,2.78-2.16,5.38-3.75,7.79l-0.5099,0.61
		c-3.9901-1.86-8.1801-3.22-12.21-4.96c-0.57,1.43-1.14,2.86-1.72,4.29c3.45,2.38,8.08,4.1,9.1801,8.61
		c-0.97,1.1-1.91,2.21-2.8101,3.36c-1.93,2.21-3.52,4.75-5.89,6.54c1.12-4.35,4.74-7.29,6.69-11.21c-2.62-2.29-5.66-4.08-8.08-6.58
		c-0.47-2.34,1.04-4.41,1.89-6.46C773.43,474.01,777.29,475.75,781.38,476.8z"/>
	<path fill="#F0FFF1" d="M770.07,474.53c4.03,1.74,8.22,3.1,12.21,4.96c-3.86-0.88-7.55-2.33-11.27-3.62
		c-0.45,0.56-1.35,1.68-1.8,2.24c2.48,2,5.33,3.6,7.53,5.94c0.76,1.51,0.99,3.22,1.42,4.86c-0.16-0.37-0.48-1.11-0.6299-1.48
		c-1.1-4.51-5.73-6.23-9.1801-8.61C768.93,477.39,769.5,475.96,770.07,474.53z"/>
	<path fill="#112257" d="M435.08,508.02c41.61-13.49,84.24-23.7,127.39-30.84l-0.0099,0.79c-1.51,1.68-3.97,1.36-5.98,1.87
		c-43.55,7.61-86.61,18.24-128.5,32.41c-39.22,13.53-77.88,29.57-113.2,51.53c-1.02,0.61-2.02,1.25-3.02,1.9
		c-1.19,0.67-2.41,1.29-3.59,1.97c1.22-1.6,2.35-3.35,4.09-4.44C350.52,539.41,392.49,522.32,435.08,508.02z"/>
	<path fill="#131453" d="M552.94,487.92c2.85-3.06,7.2-4.36,9.55-8c0.76,4.26-4.32,5.5-6.77,7.89c-3.81,2.36-0.7599,7.3-2.12,10.75
		c-3.62,7.46-11.31,12.85-12.46,21.47c-0.68,4.73-2.29,9.35-5.54,12.95c0.6-4.88,4.04-8.97,4.05-13.95
		c0.15-1.75,0.14-3.63,1.25-5.08c3.45-5.18,7.21-10.15,10.71-15.28C554.2,495.55,550.33,491.11,552.94,487.92z"/>
	<path fill="#A9CA33" d="M552.66,481.18c2.6201-0.6,5.31-0.9,8-0.67c-2.0699,3.62-6.78,4.46-8.89,8.04
		c-0.33,2.81,0.04,5.64-0.26,8.45c-2.97,6.4-8.56,11.23-11.54,17.64c-1.0699,5.04-1.5,10.4-4.3799,14.86
		c-0.8,1.72-2.7,2.26-4.35,2.79c-39.1,10.83-77.47,24.5-114.19,41.81c-19.42,9.25-38.31,19.7-56,31.98
		c-13.93,9.79-27.15,20.74-38.37,33.59c-11.13,12.69-20.4,27.28-25.49,43.47c-7.01,21.21-6.16,44.83,1.99,65.6
		c11.38,28.53,34.08,50.78,58.5,68.58c4.72,3.68,9.94,6.71,14.48,10.62c-8.87-3.05-17.17-7.48-25.66-11.42
		c-11.44-5.72-22.78-11.66-33.69-18.33c-3.05-1.92-6.45-3.5-8.75-6.36l0.97,0.18c1.78,0.36,3.58,0.66,5.38,0.98
		c1.2,0.25,2.41,0.5,3.63,0.76c-8.92-7.06-18.77-12.91-27.33-20.44c-2.4-2.15-5.16-3.82-8.04-5.24
		c-5.89-4.54-11.08-9.96-15.82-15.68c-1.41-4.28-4.19-7.92-8.1-10.18c-0.21-0.27-0.61-0.82-0.81-1.09
		c-2.65-7.5-8.23-13.48-11.12-20.88c-12.13-25.91-11.68-57.09,0.6-82.85c1.86-3.43,3.48-7,4.43-10.8c0.59-0.96,1.21-1.9,1.84-2.82
		c1.6-1.84,2.92-3.9,4.02-6.07c0.91-1.39,1.88-2.73,2.93-4c4.38-3.68,7.98-8.14,11.27-12.79c0.24-0.25,0.73-0.74,0.98-0.99
		c2.7-1.93,5.24-4.08,7.54-6.48c4.77-4.99,10.4-9.01,15.76-13.32c6.34-5.07,13.4-9.15,19.57-14.44c1-0.65,2-1.29,3.02-1.9
		c6.41-2.63,12.01-6.8,18.14-9.9901c34.83-18.93,71.83-33.62,109.56-45.68C478.52,496.55,515.45,487.96,552.66,481.18z"/>
	<path fill="#F0FFF1" d="M308.17,567.65c1.18-0.6801,2.4-1.3,3.59-1.97c-6.17,5.29-13.23,9.37-19.57,14.44
		c-5.36,4.31-10.99,8.33-15.76,13.32c-2.3,2.4-4.84,4.55-7.54,6.48c3.71-3.99,7.81-7.6,11.53-11.58c0.24-0.2,0.71-0.6,0.94-0.8
		c7.17-5.27,14.07-10.89,21.27-16.11C304.53,570.24,306.37,568.98,308.17,567.65z"/>
	<path fill="#0F2051" d="M287.58,580.57c4.83-3.34,9-8.09,15.05-9.14c-7.2,5.22-14.1,10.84-21.27,16.11
		C282.82,584.71,284.96,582.34,287.58,580.57z"/>
	<path fill="#071460" d="M275.6,590.59c1.39-1.15,3.17-1.6,4.82-2.25c-3.72,3.98-7.82,7.59-11.53,11.58
		c-0.25,0.25-0.74,0.74-0.98,0.99c-4.11,3.94-7.8,8.28-11.27,12.79c-1.05,1.27-2.02,2.61-2.93,4c-1.43,1.96-2.76,3.99-4.02,6.07
		c-0.63,0.92-1.25,1.86-1.84,2.82c-11.66,18.02-16.84,40.06-15.07,61.41c0.73,11.45,4.39,22.39,8.51,33
		c-1.79-2.12-3.53-4.36-4.38-7.04c-3.3-9.3-5.26-19.06-6-28.89c-1.1-19.89,4.29-39.86,14.04-57.13
		C253.12,613.96,263.72,601.54,275.6,590.59z"/>
	<path fill="#F0FFF1" d="M256.64,613.7c3.47-4.51,7.16-8.85,11.27-12.79C264.62,605.56,261.02,610.02,256.64,613.7z"/>
	<path fill="#F0FFF1" d="M249.69,623.77c1.26-2.08,2.59-4.11,4.02-6.07C252.61,619.87,251.29,621.93,249.69,623.77z"/>
	<path fill="#A1BE7D" d="M232.78,688c-1.77-21.35,3.41-43.39,15.07-61.41c-0.95,3.8-2.57,7.37-4.43,10.8
		c-12.28,25.76-12.73,56.94-0.6,82.85c2.89,7.4,8.47,13.38,11.12,20.88c-5.33-5.96-8.64-13.29-12.65-20.12
		C237.17,710.39,233.51,699.45,232.78,688z"/>
	<path fill="#029B0F" d="M623.65,691.65c31.47-15.69,73.5-8.94,96.67,18.1c-0.84,0.81-1.66,1.62-2.48,2.44
		c-1.52-1.14-3.19-2.04-4.85-2.92c-1.73,2.52-3.29,5.16-4.82,7.81c0.63,1.28,1.29,2.58,1.96,3.88c-0.73,0.77-1.45,1.54-2.17,2.33
		c-2.6-6.52-8.85-10.28-14.59-13.7c-3.78-1.91-7.83-4.86-12.24-3.9901c-4.83,2.85-8.23,7.51-11.87,11.67
		c-2.84,3.61-6.85,7.65-5.52,12.69c1.81,6.36,4.68,12.38,6.33,18.81c0.78,2.1,0.87,4.96,3.19,6.03c5.79,3.28,11.82,6.13,17.64,9.36
		c2.59,1.3,5.11,2.97,8.04,3.42c5-2.63,8.62-7.15,12.53-11.11c2.54-3.1,6.2401-6.89,4.5601-11.23c-0.72-2.68-1.65-5.29-2.51-7.91
		c0.81-1.22,1.63-2.43,2.47-3.62c2.15,5.1,3.09,10.56,4.28,15.93c0.65,3.47,3.53,5.79,5.68,8.38c3.63,3.9,6.57,8.5,10.89,11.72
		c0.7599-0.86,1.52-1.71,2.28-2.56c0.39,0.12,1.15,0.36,1.53,0.48c-0.06-2.1299,0.23-4.25,0.98-6.24c1.29,4.47,0.7,9.17,0.47,13.75
		c-0.98-0.64-1.95-1.27-2.91-1.87c-0.89-0.49-1.8-0.9-2.71-1.29c-0.83,8-2.76,15.88-6.27,23.14c-1.84,4.67-4.7401,8.93-5.94,13.84
		c-0.71-0.7-1.42-1.37-2.14-2.03c-3.42-2.18-7.46-2.91-11.28-4.04c-2.24-0.55-4.87-1.51-6.95-0.01c-3.22,2.03-5.83,4.85-8.79,7.22
		c-4.73,4.04-9.92,7.48-15.13,10.85c-2.4,1.29-2.8,4.13-3.55,6.49c-1.08,4.1-3.05,8.36-1.62,12.64c-0.65,0.66-1.29,1.32-1.92,1.99
		c-10.86-1.96-22.34-1.09-32.88,2.14c0.51,0.15,1.51,0.47,2.02,0.62c-0.73,0.94-1.46,1.88-2.1801,2.84
		c-12.24-3.18-24.06-8.6-33.81-16.75c-15.7-12.79-26.47-31.69-28.82-51.86c-1.8199-13.53,0.3101-27.4,5.02-40.15
		C589.16,718.59,604.24,701.01,623.65,691.65 M644.2,688.12c-7.76,1.43-15.87,3.74-21.56,9.54c-1.75,1.7401-3.74,4.42-2.26,6.9301
		c3.03,6.02,6.93,11.6299,11.17,16.87c8.16,0.43,16.33,0.95,24.46,1.8c1.51,0.05,3.25,0.45,4.49-0.72
		c4.29-3.39,7.48-7.91,11.16-11.9c2.08-2.45,4.71-4.6,5.88-7.67c0.27-3.05-1.79-5.66-3.47-7.99c-2.99-3.61-6.46-7.46-11.24-8.51
		C656.58,685.74,650.35,687.16,644.2,688.12 M601.76,711.77c-9.44,9.07-15.21,21.38-18.26,33.98c-0.69,2.93-2.03,6.22-0.23,9.03
		c2.75,5.21,5.43,10.66,9.74,14.78c6.79-2.71,12.95-6.69,19.33-10.21c3-1.79,6.77-3.37,7.74-7.09c2.76-8.65,5.71-17.25,8.23-25.98
		c1.02-2.44-0.58-4.73-1.75-6.76c-3.32-5.08-6.27-10.57-10.67-14.79C610.39,704.69,605.61,708.16,601.76,711.77 M594.58,774.01
		c0.05,8.34,0.94,16.8,3.35,24.8c5.29,6.2,12.35,10.58,18.88,15.37c3.47,2.08,7.1,5.84,11.51,4.14c7.45-2.49,14.74-6.09,20.65-11.34
		c0.96-1.11,1.96-2.18,2.98-3.23c0.47,3.36,2.69,6.12,5.77,7.49c7.11,3.63,15.4901,8.12,23.5601,4.84
		c7.75-3.63,14.4399-9.28,20.2-15.55c2.93-3.2401,1.75-7.9,1.22-11.78c-1.03-5.69-1.12-12.03-4.58-16.88
		c-5-3.57-10.65-6.09-16.06-8.95c-3.86-1.72-7.69-4.2-12.02-4.24c-3.89,1.12-7.13,3.66-10.36,5.99c-4.28,3.23-8.65,6.38-12.34,10.29
		c0.1,0.8,0.31,2.39,0.41,3.19c-0.66-1.86-2.06-3.38-4.02-3.79c-6.67-6.38-14.3-11.96-22.69-15.84
		C611.47,762.19,602.67,767.79,594.58,774.01 M588.94,802.03c0.78,4.78,3.27,9.06,6.01,12.99c7.69,10.33,18.48,18.09,29.9,23.86
		c4.05,1.66,9.92,4.67,13.19,0.17c-5.54-7.62-10.53-16.46-19.27-20.81c-7.85-4.64-14.72-10.73-22.45-15.54
		C594.17,800.99,591.4,801.8,588.94,802.03z"/>
	<path fill="#FEFEFE" d="M644.2,688.12c6.15-0.96,12.38-2.38,18.63-1.65c4.78,1.05,8.25,4.9,11.24,8.51
		c1.68,2.33,3.74,4.94,3.47,7.99c-1.17,3.07-3.8,5.22-5.88,7.67c-3.68,3.99-6.87,8.51-11.16,11.9c-1.24,1.17-2.98,0.77-4.49,0.72
		c-8.13-0.85-16.3-1.37-24.46-1.8c-4.24-5.2401-8.14-10.85-11.17-16.87c-1.48-2.51,0.51-5.19,2.26-6.9301
		C628.33,691.86,636.44,689.55,644.2,688.12z"/>
	<path fill="#FEFEFE" d="M601.76,711.77c3.85-3.61,8.63-7.08,14.13-7.04c4.4,4.22,7.35,9.71,10.67,14.79
		c1.17,2.03,2.77,4.32,1.75,6.76c-2.52,8.73-5.47,17.33-8.23,25.98c-0.97,3.72-4.74,5.3-7.74,7.09c-6.38,3.52-12.54,7.5-19.33,10.21
		c-4.31-4.12-6.99-9.57-9.74-14.78c-1.8-2.8101-0.46-6.1,0.23-9.03C586.55,733.15,592.32,720.84,601.76,711.77z"/>
	<path fill="#FFFFFE" d="M669.26,717.27c3.64-4.16,7.04-8.82,11.87-11.67c4.41-0.87,8.46,2.08,12.24,3.9901
		c5.74,3.42,11.99,7.18,14.59,13.7c2.1,4.57,3.89,9.28,5.56,14.04c0.86,2.62,1.79,5.23,2.51,7.91c1.68,4.34-2.02,8.13-4.5601,11.23
		c-3.91,3.96-7.53,8.48-12.53,11.11c-2.93-0.45-5.45-2.12-8.04-3.42c-5.82-3.23-11.85-6.08-17.64-9.36
		c-2.32-1.07-2.41-3.93-3.19-6.03c-1.65-6.43-4.52-12.45-6.33-18.81C662.41,724.92,666.42,720.88,669.26,717.27z"/>
	<path fill="#FCFEFC" d="M708.17,717.08c1.53-2.65,3.09-5.29,4.82-7.81c1.66,0.88,3.33,1.78,4.85,2.92
		c8.72,9.53,14.61,21.37,18.59,33.57c2.3,6.88,3.01,14.2,2.69,21.42c-0.76,0.85-1.52,1.7-2.28,2.56
		c-4.32-3.22-7.26-7.82-10.89-11.72c-2.15-2.59-5.03-4.91-5.68-8.38c-1.19-5.37-2.13-10.83-4.28-15.93
		c-1.59-4.41-3.64-8.63-5.86-12.75C709.46,719.66,708.8,718.36,708.17,717.08z"/>
	<path fill="#13821C" d="M720.32,709.75c11.2,12.69,18.54,28.74,21.12,45.45c0.19,2.04,0.77,4.18,0.19,6.22
		c-0.75,1.99-1.04,4.11-0.98,6.24c-0.38-0.12-1.14-0.36-1.53-0.48c0.32-7.22-0.39-14.54-2.69-21.42
		c-3.98-12.2-9.87-24.04-18.59-33.57C718.66,711.37,719.48,710.56,720.32,709.75z"/>
	<path fill="#071460" d="M930.66,716.78c8.83,4.84,17.46,10.18,25.69,16c-3.2-1.1801-6.35-2.45-9.47-3.8101
		c3.64,5.13,9.43,8.48,12.07,14.34c-6.01-5.39-11.33-11.52-17.46-16.8C938.01,723.12,933.92,720.39,930.66,716.78z"/>
	<path fill="#10871B" d="M710.13,720.96c2.22,4.12,4.27,8.34,5.86,12.75c-0.84,1.19-1.66,2.4-2.47,3.62
		c-1.67-4.76-3.46-9.47-5.56-14.04C708.68,722.5,709.4,721.73,710.13,720.96z"/>
	<path fill="#00149B" d="M946.88,728.97c3.12,1.36,6.27,2.63,9.47,3.8101c13.79,8.43,26.72,18.3199,39.21,28.59
		c15.31,12.87,29.7401,27.05,41.35,43.4l0.4099,0.71c0.7001,2.5,1.5,5.02,2.9901,7.19c11.5599,17.13,18.5499,37.59,18.5499,58.35
		c-0.16,11.95-2.67,23.82-6.96,34.95c-2.1901,6-6.11,11.25-7.6901,17.4901c-2.35,3.91-4.96,7.65-7.5699,11.4
		c-5.05,5.1-9.49,10.88-15.3,15.18c-5.84,2.55-10.2401,7.26-15.4301,10.81c-21.95,15.9901-46.86,27.37-72.22,36.8
		c-4.43,1.52-9.13,2.67-12.8,5.77c-7.12,3.17-14.85,4.91-22.27,7.3c-49.75,14.38-101.03,23.04-152.59,27.37
		c-8.86,0.48-17.71,1.78-26.58,1.6c-3.46-0.62-6.97-0.97-10.47-0.72c-30.97,1.55-62,1.3301-92.98,0.22
		c-5.15-0.33-10.34-0.4299-15.44,0.52c-23.19-0.74-46.34-2.98-69.44-5.22c-110.74-11.16-220.36-35.94-324.14-76.44
		c-16.79-6.58-33.38-13.67-49.72-21.28c-0.82-0.37-1.56-0.85-2.23-1.43c-1.61-1.58-3.28-3.16-5.38-4.05
		c-5.51-2.55-10.94-5.2599-16.46-7.7599c1.56-1.88,3.27-3.63,5.08-5.25c7.52,2.39,14.72,5.68,22.13,8.3799
		c20.06,7.3,40.12,14.6201,60.68,20.4c10.18,3.54,20.65,6.06,31,9.03c53.52,14.71,108.11,25.31,163.07,32.92
		c7.1,0.7,14.21,3.12,21.36,1.47c7.13,0.35,14.21,1.67,21.33,2.24c-2.06,0.17-4.1,0.4-6.15,0.64c6.75,1.29,13.64,1.31,20.43,2.28
		c7.98,0.82,16.04,2.18,24.07,1.06c10.3,0.45,20.59,1.48,30.89,2.1c-3.17-0.11-6.34,0.03-9.49,0.41c5.41,1.58,11.1,0.94,16.65,1.46
		c6.71,0.52,13.54,1.34,20.16-0.31c6.89-0.35,13.79,0.41,20.68,0.57c-6.76,0.82-13.64-0.84-20.32,0.51
		c16.04,1.26,32.16,0.77,48.24,0.9c14.74-0.13,29.52,0.3799,44.21-0.9c-2.98-0.89-6.1-0.54-9.15-0.46c-5.37,0.18-10.74,0-16.11-0.03
		c50.93-1.11,101.87-5.59,151.92-15.24c38.37-7.5,76.39-17.51,112.67-32.2c20.27-8.35,40.04-18.26,57.88-31.09
		c14.19-10.23,27.19-22.42,36.87-37.07c11.63-17.36,17.89-38.39,17-59.31c-0.95-26.24-13.41-50.63-29.55-70.79
		c-3.07-4.14-6.92-7.66-9.79-11.94C956.31,737.45,950.52,734.1,946.88,728.97z"/>
	<path fill="#A3C17D" d="M254.75,742.21c3.91,2.2599,6.69,5.9,8.1,10.18C259.81,749.27,257.01,745.93,254.75,742.21z"/>
	<path fill="#FEFFFE" d="M594.58,774.01c8.09-6.22,16.89-11.82,26.46-15.49c8.39,3.88,16.02,9.46,22.69,15.84
		c2.46,10.73,3.75,21.71,5.24,32.62c-5.91,5.25-13.2,8.85-20.65,11.34c-4.41,1.7-8.04-2.06-11.51-4.14
		c-6.53-4.79-13.59-9.17-18.88-15.37C595.52,790.81,594.63,782.35,594.58,774.01z"/>
	<path fill="#FEFFFE" d="M659.68,764.67c3.23-2.33,6.47-4.87,10.36-5.99c4.33,0.04,8.16,2.52,12.02,4.24
		c5.41,2.86,11.06,5.38,16.06,8.95c3.46,4.85,3.55,11.19,4.58,16.88c0.53,3.88,1.71,8.54-1.22,11.78
		c-5.76,6.27-12.45,11.92-20.2,15.55c-8.07,3.28-16.45-1.21-23.5601-4.84c-3.08-1.37-5.3-4.13-5.77-7.49
		c-2.18-8.39-2.93-17.05-4.2-25.6c-0.1-0.8-0.31-2.39-0.41-3.19C651.03,771.05,655.4,767.9,659.68,764.67z"/>
	<path fill="#071460" d="M254.72,765.37c1.72,0.51,3.46,1,5.07,1.8c12.51,6.67,24.72,14.12,38.06,19.03
		c-4.73-4.75-11.29-7.57-14.82-13.47c5.74,3.96,11,8.56,16.74,12.54c3.6,2.5,7.22,4.97,10.64,7.72c-1.8-0.32-3.6-0.62-5.38-0.98
		C288.16,783.36,270.6,775.81,254.72,765.37z"/>
	<path fill="#A3C076" d="M278.67,768.07c2.88,1.42,5.64,3.09,8.04,5.24c8.56,7.53,18.41,13.38,27.33,20.44
		c-1.22-0.26-2.43-0.51-3.63-0.76c-3.42-2.75-7.04-5.22-10.64-7.72c-5.74-3.98-11-8.58-16.74-12.54
		C281.6,771.14,280.17,769.57,278.67,768.07z"/>
	<path fill="#F0FFF1" d="M736.48,772.01c0.91,0.39,1.82,0.8,2.71,1.29c-0.76,8.28-1.82,16.74-5.59,24.28
		c-2.6,5.04-5.23,10.14-8.79,14.59c-0.14-0.79-0.41-2.38-0.54-3.18c1.2-4.91,4.1-9.17,5.94-13.84
		C733.72,787.89,735.65,780.01,736.48,772.01z"/>
	<path fill="#147C19" d="M643.73,774.36c1.96,0.41,3.36,1.93,4.02,3.79c1.27,8.55,2.02,17.21,4.2,25.6
		c-1.02,1.05-2.02,2.12-2.98,3.23C647.48,796.07,646.19,785.09,643.73,774.36z"/>
	<path fill="#107F17" d="M739.19,773.3c0.96,0.6,1.93,1.23,2.91,1.87c-2.83,28.11-21.33,53.99-46.75,66.2
		c-6.8199,3.72-14.29,6.01-21.79,7.84c-11.22,1.18-22.72,1.43-33.71-1.51c0.72-0.96,1.45-1.9,2.1801-2.84
		c11.73,3.45,24.81,3.84,36.27-0.82c-1.8-0.69-3.59-1.38-5.41-1.94c0.63-0.67,1.27-1.33,1.92-1.99c4.39,1.05,8.99,2.37,13.49,1.06
		c7.16-1.99,13.39-6.26,19.41-10.47c4.71-3.54,9.53-7.25,12.63-12.36c2.17-3.3701,1.44-7.59,1.79-11.38
		c0.72,0.66,1.43,1.33,2.14,2.03c0.13,0.8,0.4,2.39,0.54,3.18c3.56-4.45,6.19-9.55,8.79-14.59
		C737.37,790.04,738.43,781.58,739.19,773.3z"/>
	<path fill="#FBFDFB" d="M588.94,802.03c2.46-0.23,5.23-1.04,7.38,0.67c7.73,4.81,14.6,10.9,22.45,15.54
		c8.74,4.35,13.73,13.19,19.27,20.81c-3.27,4.5-9.14,1.49-13.19-0.17c-11.42-5.77-22.21-13.53-29.9-23.86
		C592.21,811.09,589.72,806.81,588.94,802.03z"/>
	<path fill="#FDFEFD" d="M703.9,802.91c2.08-1.5,4.71-0.54,6.95,0.01c3.82,1.13,7.86,1.86,11.28,4.04
		c-0.35,3.79,0.38,8.0099-1.79,11.38c-3.1,5.11-7.92,8.8199-12.63,12.36c-6.02,4.21-12.25,8.48-19.41,10.47
		c-4.5,1.31-9.1-0.01-13.49-1.06c-1.43-4.28,0.54-8.54,1.62-12.64c0.75-2.36,1.15-5.2,3.55-6.49c5.21-3.37,10.4-6.81,15.13-10.85
		C698.07,807.76,700.68,804.94,703.9,802.91z"/>
	<path fill="#071460" d="M446.87,804.68c-0.04,0.6-0.11,1.81-0.15,2.41c-1.92,0.72-3.87,1.42-5.93,1.52
		c-8.61,0.47-17.23,0.22-25.84,0.26c-5.18-0.01-10.58,2.15-13.68,6.41c-2.69,4.15-0.16,9.04,1.35,13.1299
		c-2.78-2.62-4.83-6.47-3.76-10.37c0.56-4.1,3.75-7.21,7.47-8.67c4.16-2.45,9.1-1.31,13.67-1.53c7.65,0.2,15.29-0.27,22.92-0.88
		C444.63,807.09,445.68,805.64,446.87,804.68z"/>
	<path fill="#A1BE7A" d="M1036.91,804.77c2.51,0.94,4.84,2.37,6.64,4.39c-1.17,1.5,0.0299,3.09,0.7999,4.44
		c10.2001,16.6,17.1801,35.7401,17.03,55.42c0.6801,18.36-4.67,36.65-13.92,52.43c-3.01,4.89-5.72,10.33-10.8199,13.41
		c2.61-3.75,5.22-7.49,7.5699-11.4c10.3401-15,15.5901-33.33,15.91-51.47c0.6-24.02-8.9-47.29-22.8-66.51L1036.91,804.77z"/>
	<path fill="#112252" d="M1037.3199,805.48c13.9,19.22,23.4,42.49,22.8,66.51c-0.3199,18.14-5.5699,36.47-15.91,51.47
		c1.5801-6.2401,5.5-11.4901,7.6901-17.4901c4.2899-11.1299,6.7999-23,6.96-34.95c0-20.76-6.99-41.22-18.5499-58.35
		C1038.8199,810.5,1038.02,807.98,1037.3199,805.48z"/>
	<path fill="#A9CA31" d="M1044.35,813.6c-0.77-1.35-1.97-2.94-0.7999-4.44c13.0599,10.98,25.26,23.06,35.75,36.54
		c11.08,14.4,20.3099,30.58,24.6,48.36c4.7,18.6,3.5,38.62-3.24,56.57c-6.3,17.33-17.67,32.44-31.13,44.89
		c-24.98,22.84-56.01,37.7-87.4,49.5699c-43.43,16.12-88.88,26.1901-134.59,33.27c-36.36,5.2001-73.0099,8.4401-109.73,9.24
		c-54.7,1.4-109.45-1.11-163.85-6.9c-91.41-9.45-181.92-28.3199-269.1-57.5099c-30.8-10.34-61.21-21.9-90.86-35.21
		c-21.74-10.02-43.43-20.42-63.76-33.11c1.51-1.86,3.4-3.34,5.59-4.31c96.08,42.68,199.03,68.27,302.91,82.97
		c68.97,9.6,138.58,15.1699,208.25,13.9299c9.35,0.3,18.64-0.96,27.99-0.95c92.81-3.99,186.1-21.21,271.11-59.66
		c3.74-1.71,7.5099-3.45,10.72-6.08c1.27-0.74,2.57-1.45,3.9-2.11c6.23-2.25,12.12-5.5099,17.06-9.96c0.96-0.68,1.94-1.35,2.95-1.98
		c5.6201-2.73,10.95-6.22,15.02-11.02c1.86-1.89,3.69-3.82,5.6-5.66c5.81-4.3,10.2499-10.08,15.3-15.18
		c5.1-3.08,7.8099-8.52,10.8199-13.41c9.25-15.78,14.6001-34.07,13.92-52.43C1061.53,849.34,1054.55,830.2,1044.35,813.6z"/>
	<path fill="#F8FEF8" d="M640.01,844.24c10.54-3.23,22.02-4.1,32.88-2.14c1.82,0.56,3.61,1.25,5.41,1.94
		c-11.46,4.66-24.54,4.27-36.27,0.82C641.52,844.71,640.52,844.39,640.01,844.24z"/>
	<path fill="#051497" d="M66.7,883.89c5.19,2.05,9.96,5.02,15.03,7.34c97.09,47.16,202.28,75.85,308.66,92.5
		c15.32,2.61,30.79,4.22,46.12,6.75c-7.15,1.65-14.26-0.77-21.36-1.47c-54.96-7.61-109.55-18.21-163.07-32.92
		c-10.35-2.97-20.82-5.4901-31-9.03c-20.56-5.78-40.62-13.1-60.68-20.4c-7.41-2.7-14.61-5.99-22.13-8.3799
		c-1.81,1.62-3.52,3.37-5.08,5.25c5.52,2.5,10.95,5.21,16.46,7.7599c2.1,0.89,3.77,2.47,5.38,4.05c-3.97-1.22-7.6-3.3-11.32-5.11
		c-19.52-9.65-38.6-20.23-56.88-32.08C80.08,893.47,72.81,889.4,66.7,883.89z"/>
	<path fill="#A9C63D" d="M114.02,931.07c6.76,2.62,13.07,6.25,19.65,9.27c7.39,3.4,14.74,6.89,22.16,10.22
		c-2.19,0.97-4.08,2.45-5.59,4.31c-4.95-2.19-9.26-5.52-13.91-8.23C128.71,941.73,121.04,936.82,114.02,931.07z"/>
	<path fill="#071460" d="M1005.91,960.85c5.19-3.55,9.59-8.2599,15.4301-10.81c-1.91,1.84-3.7401,3.77-5.6,5.66
		c-4.89,3.82-9.92,7.48-15.02,11.02c-1.0099,0.63-1.99,1.3-2.95,1.98c-5.61,3.46-11.25,6.85-17.06,9.96
		c-1.33,0.66-2.63,1.3701-3.9,2.11c-17.87,9.27-36.63,16.92-55.92,22.65c3.67-3.1,8.37-4.25,12.8-5.77
		C959.05,988.22,983.96,976.84,1005.91,960.85z"/>
	<path fill="#F0FFF1" d="M1000.72,966.72c5.1-3.54,10.13-7.2,15.02-11.02C1011.67,960.5,1006.34,963.99,1000.72,966.72z"/>
	<path fill="#F0FFF1" d="M980.71,978.66c5.81-3.11,11.45-6.5,17.06-9.96C992.83,973.15,986.94,976.41,980.71,978.66z"/>
	<path fill="#071460" d="M451.69,993.36c2.05-0.24,4.09-0.47,6.15-0.64c12.75,1.65,25.58,2.5,38.35,3.98
		c-8.03,1.12-16.09-0.24-24.07-1.06C465.33,994.67,458.44,994.65,451.69,993.36z"/>
	<path fill="#090F6B" d="M517.59,999.21c3.15-0.38,6.3199-0.52,9.49-0.41c9.11,0.51,18.23,0.84,27.32,1.56
		c-6.62,1.65-13.45,0.83-20.16,0.31C528.69,1000.15,523,1000.79,517.59,999.21z"/>
	<path fill="#0A1164" d="M554.76,1001.44c6.68-1.35,13.56,0.31,20.32-0.51c15.62,0.11,31.25,0.29,46.87,0.02
		c5.37,0.03,10.74,0.21,16.11,0.03c3.05-0.08,6.17-0.43,9.15,0.46c-14.69,1.28-29.47,0.77-44.21,0.9
		C586.92,1002.21,570.8,1002.7,554.76,1001.44z"/>
	<path fill="#071460" d="M600.56,1039.71c5.1-0.95,10.29-0.85,15.44-0.52c30.98,1.1101,62.01,1.3301,92.98-0.22
		c3.5-0.25,7.01,0.1,10.47,0.72c-29.41,2.2201-58.97,1.8701-88.44,1.41C620.86,1040.6899,610.68,1040.59,600.56,1039.71z"/>
</g>
</svg>
