<?xml version="1.0" encoding="iso-8859-1"?>
<!-- Generator: Adobe Illustrator 19.0.0, SVG Export Plug-In . SVG Version: 6.00 Build 0)  -->
<!-- License: CC0. Made by SVG Repo: https://www.svgrepo.com/svg/141391/hockey-pitch -->
<svg version="1.1" id="Layer_1" xmlns="http://www.w3.org/2000/svg" xmlns:xlink="http://www.w3.org/1999/xlink" x="0px" y="0px"
	 viewBox="0 0 470 470" style="enable-background:new 0 0 470 470;" xml:space="preserve">
<g transform="translate(0 -540.36)">
	<g>
		<g>
			<path d="M235,752.86c-12.4,0-22.5,10.1-22.5,22.5s10.1,22.5,22.5,22.5c12.4,0,22.5-10.1,22.5-22.5S247.4,752.86,235,752.86z
				 M235,788.06c-7.1,0-12.8-5.6-12.8-12.7c0-6.7,5.7-12.4,12.8-12.4c6.8,0,12.4,5.6,12.4,12.4
				C247.4,782.46,241.8,788.06,235,788.06z"/>
			<path d="M235.2,770.26c-3,0-5.3,2.3-5.3,4.9c0,3,2.3,5.2,5.3,5.2c2.6,0,4.9-2.2,4.9-5.2C240.1,772.56,237.8,770.26,235.2,770.26z
				"/>
			<path d="M452.7,752.86v-95H17.6v4.9v90.1H0v45h17.6v95h435.1v-95H470v-45H452.7z M17.6,788.06h-7.5v-25.1h7.5V788.06z
				 M27.4,733.16c21.2,2.5,37.3,20.2,37.3,42c0.3,22-16.2,39.8-37.3,42.4V733.16z M27.4,827.46L27.4,827.46
				c26.7-2.4,47.5-25,47.5-52.3c0-27.2-20.9-49.7-47.5-52.2v-13.2c34.8,2.5,62.5,30.7,62.5,65.4c0,34.5-27.2,63.1-62.5,65.4V827.46z
				 M122.5,882.76H27.4v-32.1c40.6-2.7,72.6-35.5,72.6-75.5c-0.4-40.3-32.2-72.6-72.6-75.2v-32h95.1V882.76z M229.9,882.76h-97.7
				v-214.8h97.7v65.2c-21.1,2.6-37.5,20.5-37.5,42c0,21.8,16.4,39.8,37.5,42.4V882.76z M202.6,775.16c0-18,14.6-32.2,32.6-32.2
				s32.3,14.2,32.3,32.2c-0.1,18-14.3,32.6-32.3,32.6S202.6,793.16,202.6,775.16z M337.4,882.76h-97.3v-65.2
				c21-2.5,37.5-20.5,37.5-42.4c0-21.6-16.5-39.6-37.5-42.1v-65.1h97.3V882.76z M442.6,882.66h-95.1v-214.7h95.1v32
				c-40.4,2.5-72.6,34.9-72.6,75.2c0,40.2,32.2,73,72.6,75.5V882.66z M442.7,723.06c-26.6,2.5-47.5,25-47.5,52.1v0
				c-0.4,27.3,20.7,49.9,47.5,52.3v13.2c-35.3-2.3-62.8-30.9-62.5-65.4c0-34.7,27.3-62.9,62.5-65.4V723.06z M442.6,733.16v84.5
				c-21.4-2.6-37.7-20.4-37.7-42.4C405.3,753.26,421.4,735.56,442.6,733.16z M460.2,788.06h-7.5v-25.1h7.5V788.06z"/>
		</g>
	</g>
</g>
</svg>
