<?xml version="1.0" encoding="utf-8"?>
<!-- License: CC Attribution. Made by Eleken: https://www.eleken.co/ -->
<svg fill="#000000" width="800px" height="800px" viewBox="-3.19 0 24 24" xmlns="http://www.w3.org/2000/svg">
  <defs>
    <style>
      .cls-1 {
        fill-rule: evenodd;
      }
    </style>
  </defs>
  <path id="user" class="cls-1" d="M1374.83,312c-0.51-4.347-2.32-8-6.83-8s-6.32,3.653-6.83,8h-1.99c0.65-5.425,3.21-10,8.82-10s8.17,4.575,8.82,10h-1.99ZM1368,300a6,6,0,1,1,6-6A6,6,0,0,1,1368,300Zm0-10a4,4,0,1,0,4,4A4,4,0,0,0,1368,290Z" transform="translate(-1359.19 -288)"/>
</svg>